<?xml version="1.0" encoding="UTF-8"?>
<svg id="Layer_1" xmlns="http://www.w3.org/2000/svg" version="1.1" viewBox="0 0 600 600">
  <!-- Generator: Adobe Illustrator 29.1.0, SVG Export Plug-In . SVG Version: 2.1.0 Build 142)  -->
  <defs>
    <style>
      .st0 {
        fill: #370300;
      }
    </style>
  </defs>
  <g>
    <path class="st0" d="M176.1,217.2v-.2c0-.1,0-.2,0-.3-.3.2-.5.6-.7,1s-.3.9-.3,1.5.1,1.3.4,1.9c.3.6.7,1.1,1.2,1.5.5.4,1.1.7,1.8,1,.7.2,1.5.3,2.3.3,3.8,0,5.9-1.7,6.3-5.2.1-.8.2-1.7.2-2.8,0-1.1,0-2.3,0-3.7v-8c0-1.7-.5-2.5-1.4-2.5s-.5,0-.8,0c-.4,0-.8.1-1.2.1-.6,0-1-.2-1.4-.5-.4-.4-.6-.8-.6-1.4,0-1.4.9-2,2.6-2h.3c.1,0,.3,0,.3,0l2.2.3c.4,0,.8.1,1.3.1.4,0,.9,0,1.3,0s.8,0,1.3,0c.5,0,1,0,1.5-.2l1.8-.3c.1,0,.3,0,.4,0s.2,0,.4,0c1.7,0,2.5.7,2.5,2s-.7,2-2,2-.8,0-1.3-.1c-.2,0-.5,0-.7,0-1,0-1.4.8-1.4,2.5v8c0,2.1,0,3.9-.1,5.3,0,1.4-.2,2.5-.4,3.2-.1.6-.4,1.2-.8,1.9-.4.7-.8,1.3-1.3,1.8-1.1,1.1-2.4,2-3.9,2.6-1.5.6-3.2,1-5,1-3.1,0-5.6-.8-7.6-2.4-2-1.7-3-3.8-3-6.4s.6-3.5,1.9-4.9,2.8-2,4.7-2,2.6.4,3.5,1.1c.9.7,1.3,1.7,1.3,2.8s0,.8-.2,1.2c-.2.4-.4.7-.7,1-.3.3-.6.5-1,.7-.4.2-.7.3-1.2.3-.7,0-1.3-.2-1.9-.7-.6-.4-.8-1-.8-1.7Z"/>
    <path class="st0" d="M215.8,227.3c-1.1,0-1.7-.4-1.9-1.3-1.5,1.2-3.4,1.9-5.7,1.9-3.5,0-6-1.1-7.4-3.3-.3-.5-.5-1-.7-1.6-.2-.6-.3-1.2-.3-1.7,0-.3,0-.8,0-1.5v-5.6c0-3.4-.2-5.1-.5-5.1s-.1,0-.3,0-.2,0-.4,0c-.1,0-.4,0-.6,0-.3,0-.4,0-.3,0-1.4,0-2.1-.7-2.1-2s.8-1.9,2.5-1.9.3,0,.5,0c.2,0,.4,0,.7,0,.2,0,.5,0,.7,0,.2,0,.4,0,.5,0s.2,0,.5,0c.2,0,.5,0,.7-.1.1,0,.2,0,.3,0,.1,0,.3,0,.4,0,1.3,0,2,.7,2,2.1v3.6s-.2,3-.2,3v2.6c0,1.2,0,2.2.2,3,.1.8.2,1.5.4,2,.5,1.5,1.8,2.2,3.9,2.2s1.9-.2,2.7-.7,1.4-1.1,1.7-1.9c.4-1,.6-2.9.6-5.9v-5c0-.9-.2-1.4-.4-1.4s-.3,0-.6,0h-.6c-1.4,0-2.1-.6-2.1-1.9s.8-2,2.3-2,.3,0,.5,0c.2,0,.4,0,.7,0,.2,0,.4,0,.7,0,.2,0,.3,0,.4,0h.4c.2,0,.3,0,.5,0,.2,0,.4,0,.5,0,.2,0,.4,0,.5,0,1.3,0,2,.6,2,1.9s0,.8,0,1h0c0,.5-.1,1.1-.2,1.9,0,.8,0,1.6,0,2.6v6.4c0,1.6,0,2.5,0,2.7.1,1.2.3,1.8.4,1.8s.2,0,.3,0c.1,0,.3,0,.5,0,.1,0,.3,0,.6,0,.2,0,.3,0,.3,0,1.4,0,2.1.6,2.1,1.9s-.8,2-2.4,2h-.4c-.2,0-.3,0-.5,0,0,0-.1,0-.2,0,0,0-.1,0-.1,0-.7,0-1.1-.1-1.2-.1s0,0-.1,0c0,0,0,0-.2,0-.2,0-.3,0-.5,0h0c-.3,0-.7.1-1,.1Z"/>
    <path class="st0" d="M232.3,204.7c1.6,0,2.9.3,4,1,.3-.8.9-1.2,1.9-1.2s2,.6,2,1.9,0,.1,0,.2,0,.2,0,.3,0,.3,0,.4c0,.2,0,.3,0,.5,0,.3-.1.5-.1.8,0,.3,0,.5,0,.7,0,.4,0,.8.1,1.3,0,.3.1.6.1.8,0,.2,0,.5,0,.7,0,1.5-.7,2.2-2,2.2s-2-.6-2.1-1.9v-1.4c0-.7-.5-1.2-1.2-1.7-.8-.5-1.7-.7-2.8-.7s-1.9.3-2.7.8-1.1,1.2-1.1,2,.3,1.3.8,1.7c.6.4,1.3.7,2.2.9.4,0,.8.1,1.2.2.4,0,.8.1,1.2.2,5.1.7,7.7,2.8,7.7,6.4s-.9,3.9-2.6,5.3c-1.7,1.3-3.8,1.9-6.4,1.9s-3.7-.4-5.2-1.3c-.1,1.1-.8,1.7-2.1,1.7s-2.2-.8-2.2-2.3c0-.4.1-.8.2-1,0-.3,0-.5.1-.7,0-.2,0-.4,0-.6,0-.2,0-.5,0-.9s0-.7,0-1c0-.4,0-.7-.2-1,0-.4-.1-.8-.1-1.2,0-1.3.7-2,2-2s1.5.2,1.7.7c.2.4.3,1.2.3,2.4,0,1,.6,1.8,1.6,2.5,1.1.6,2.4,1,4.2,1s2.1-.3,2.8-.8c.7-.6,1.1-1.3,1.1-2.2,0-1.5-1.3-2.4-3.8-2.7-1.5-.2-2.8-.4-4-.7-1.2-.3-2.1-.7-2.9-1.1s-1.4-1.1-1.8-1.8c-.4-.8-.6-1.7-.6-2.8s.2-2,.6-2.9c.4-.9,1-1.6,1.8-2.2s1.7-1.1,2.7-1.4,2.2-.5,3.5-.5Z"/>
    <path class="st0" d="M254.5,218.2c0-1.5.8-2.3,2.2-2.3s2.1.8,2.1,2.5-.1,2.9-.3,4c-.2,1.1-.6,2-1,2.6-1.2,1.7-3.1,2.6-5.7,2.6s-2.3-.2-3.2-.6-1.6-1-2.1-1.7c-.8-1.2-1.2-3-1.2-5.5v-9.9c0-.2,0-.3,0-.3h-1.3c-.6,0-1.2-.2-1.6-.6-.4-.4-.6-.9-.6-1.5s.2-1,.6-1.4.9-.6,1.5-.6h1.6v-4.4c0-1.4.8-2.2,2.3-2.2s2.2.7,2.2,2.2v4.4s0,0,0,0h4.5c1.5,0,2.3.7,2.3,2s-.8,2.1-2.3,2.1h-4.6c0,0,.1.2.1.3v10.1c0,2.5.7,3.7,2.1,3.7s2.3-1,2.3-2.9v-2.7Z"/>
    <path class="st0" d="M366.1,227.7c-2.1,0-3.6-.7-4.4-2.2-1.5,1.6-3.7,2.3-6.4,2.3s-4.4-.6-5.9-1.8-2.2-2.8-2.2-4.8.3-2.3.9-3.2c.6-.9,1.4-1.7,2.4-2.3.8-.4,1.5-.7,2-.9.6-.1,1.7-.3,3.3-.5,2.2-.2,3.6-.5,4.2-.9.5-.3.7-1,.7-2s-.3-1.7-1-2.2c-.7-.6-1.6-.8-2.8-.8s-2.2.3-3.1,1h0c-.2.2-.3.3-.3.3h0c.6.5.9,1.1.9,1.9s-.3,1.3-.8,1.8c-.5.5-1.2.7-2,.7s-1.7-.3-2.3-.9c-.6-.6-.9-1.3-.9-2.2,0-1.7.9-3.2,2.6-4.4,1.6-1.2,3.6-1.8,6-1.8,5.5,0,8.2,2.6,8.2,7.8v8.3c0,.6,0,1.1,0,1.5,0,.4,0,.7,0,.8.1.6.4,1,.7,1,.5,0,.7-.7.7-2v-2c0-1.2.7-1.9,2-1.9s2.1.8,2.1,2.5v2.6c-.1,3-1.7,4.5-5,4.5ZM360.8,217.3c-.2,0-.3.1-.5.2-.2,0-.3.1-.5.2-.8.3-2,.5-3.7.6-2.7.3-4.1,1.2-4.1,2.9s.3,1.5.9,2c.6.5,1.5.8,2.6.8,1.7,0,2.9-.4,3.8-1.3.9-.9,1.4-2.1,1.4-3.7v-1.7Z"/>
    <path class="st0" d="M380.4,204.7c1.6,0,2.9.3,4,1,.3-.8.9-1.2,1.9-1.2s2,.6,2,1.9,0,.1,0,.2,0,.2,0,.3,0,.3,0,.4c0,.2,0,.3,0,.5,0,.3-.1.5-.1.8,0,.3,0,.5,0,.7,0,.4,0,.8.1,1.3,0,.3.1.6.1.8,0,.2,0,.5,0,.7,0,1.5-.7,2.2-2,2.2s-2-.6-2.1-1.9v-1.4c0-.7-.5-1.2-1.2-1.7-.8-.5-1.7-.7-2.8-.7s-1.9.3-2.7.8-1.1,1.2-1.1,2,.3,1.3.8,1.7c.6.4,1.3.7,2.2.9.4,0,.8.1,1.2.2.4,0,.8.1,1.2.2,5.1.7,7.7,2.8,7.7,6.4s-.9,3.9-2.6,5.3c-1.7,1.3-3.8,1.9-6.4,1.9s-3.7-.4-5.2-1.3c-.1,1.1-.8,1.7-2.1,1.7s-2.2-.8-2.2-2.3c0-.4.1-.8.2-1,0-.3,0-.5.1-.7,0-.2,0-.4,0-.6,0-.2,0-.5,0-.9s0-.7,0-1c0-.4,0-.7-.2-1,0-.4-.1-.8-.1-1.2,0-1.3.7-2,2-2s1.5.2,1.7.7c.2.4.3,1.2.3,2.4,0,1,.6,1.8,1.6,2.5,1.1.6,2.4,1,4.2,1s2.1-.3,2.8-.8c.7-.6,1.1-1.3,1.1-2.2,0-1.5-1.3-2.4-3.8-2.7-1.5-.2-2.8-.4-4-.7-1.2-.3-2.1-.7-2.9-1.1s-1.4-1.1-1.8-1.8c-.4-.8-.6-1.7-.6-2.8s.2-2,.6-2.9c.4-.9,1-1.6,1.8-2.2s1.7-1.1,2.7-1.4,2.2-.5,3.5-.5Z"/>
    <path class="st0" d="M399.3,214.6c1-.9,2-1.8,2.9-2.7.9-.9,1.9-1.8,2.9-2.7v-.2s-.2,0-.3,0c-.1,0-.3,0-.4,0-.2,0-.5.1-.7.1-.2,0-.5,0-.7,0-1.4,0-2.1-.6-2.1-1.9s.8-2,2.5-2,.3,0,.5,0c.2,0,.3,0,.5,0h.2c1,.1,1.8.2,2.5.2.7,0,1.3,0,1.8,0s.4,0,.7,0c.2,0,.5,0,.6,0l1.8-.3c.1,0,.3,0,.4,0,.1,0,.3,0,.5,0,1.8,0,2.7.7,2.7,2s-.7,1.9-2.1,1.9-.3,0-.5,0c-.2,0-.4,0-.5,0-.1,0-.3,0-.5,0s-.3,0-.3,0c-.5,0-1,.3-1.7.9l-4.3,4h0l-.3.3c0,0,0,0,0,0,0,0,0,0,.2.2.8,1.1,1.7,2.2,2.6,3.4.9,1.2,1.8,2.3,2.6,3.4h0c1.3,1.5,2.1,2.3,2.3,2.3h.5c.1,0,.3-.1.4-.1.1,0,.3,0,.5,0,1.5,0,2.2.6,2.2,1.9s-.9,2-2.6,2-.6,0-1,0c-.4,0-.8,0-1.3-.1-.5,0-.9-.1-1.3-.1-.3,0-.6,0-.9,0s-.5,0-.7,0c-.3,0-.7,0-1.1.1h0c-.4,0-.8.1-1.1.1-.3,0-.6,0-.9,0-1.5,0-2.3-.7-2.3-2s.7-1.9,2.2-1.9.7,0,.8,0c0,0,0,0,0,0s0,0,0,0l-.5-.8c-.7-.9-1.4-1.8-2.1-2.8-.7-.9-1.4-1.8-2.1-2.7h0s-.2-.2-.2-.2v.2c0,0-2.9,2.5-2.9,2.5v2.3c0,.4,0,.7,0,.8,0,.5.2.7.4.7s.4,0,.5,0c.1,0,.3,0,.4,0,.1,0,.3,0,.5,0,1.4,0,2.1.6,2.1,1.9s-.8,2-2.3,2-.6,0-1,0c-.4,0-.8,0-1.3-.1-.5,0-.9-.1-1.2-.2-.3,0-.6,0-.8,0s-.6,0-1,0-.7,0-1.1.1c-.5,0-1,.1-1.3.2-.3,0-.6,0-.9,0-1.5,0-2.3-.7-2.3-2s.8-1.9,2.3-1.9.3,0,.4,0,.3,0,.4,0c.2,0,.4,0,.5,0h.3c.2,0,.3-.3.4-1v-1.6c.1,0,.1-16.6.1-16.6,0-1.5-.1-2.3-.3-2.6,0-.1-.1-.2-.2-.2,0,0-.2,0-.3,0,0,0-.1,0-.2,0,0,0,0,0-.2,0-.2,0-.5.1-.7.2-.2,0-.4,0-.7,0-1.4,0-2-.6-2-1.8s.8-2,2.3-2h.8c.2,0,.4,0,.5,0h0c.6,0,.9.1,1.2.1s.2,0,.4,0c.3,0,.5,0,.6,0,.2,0,.4,0,.5,0,.1,0,.3,0,.4,0h.3c1.3,0,2,.8,2,2.3v14.4Z"/>
  </g>
  <g>
    <path class="st0" d="M463.9,180.4c0-4.7-.8-6.4-5.4-7.7-8.1-2.2-16.4-4.5-24.7-5.6-11.5-1.5-23.2-2-30.6-2.6-25.7.2-47.2.8-67.9,7.5-6,2-12,4.2-18,6.3-5.7,1.9-11.4,3-17.2,3.1-5.7,0-11.4-1.1-17.2-3.1-6-2-11.9-4.3-18-6.3-20.8-6.7-42.2-7.3-67.9-7.5-7.5.6-19.1,1-30.6,2.6-8.3,1.1-16.5,3.4-24.7,5.6-4.6,1.3-5.4,3-5.4,7.7,0,3.4,0,6.8,0,10.2,0,2.7.9,4.8,2.8,6.8,1.6,1.7,3.1,3.8,3.9,6,1.5,4.2,2.4,8.5,3.5,12.8,2.5,10,4.7,20.2,7.6,30.1,2.6,9,8.8,14.8,17.7,17.6,2.1.7,4.2,1.4,6.4,2,20.6,5.2,41.3,4.9,62,.8,10.5-2.1,20.1-6,26.5-14.8,4.4-5.9,8.1-12.4,11.3-19.1,3.4-7,5.7-14.6,8.5-21.9,3.1-7.9,4.3-8.7,12.6-8.7.4,0,.8,0,1.2,0,.4,0,.8,0,1.2,0,8.3,0,9.5.8,12.6,8.7,2.9,7.3,5.2,14.8,8.5,21.9,3.2,6.6,6.9,13.1,11.3,19.1,6.5,8.8,16,12.7,26.5,14.8,20.8,4.1,41.4,4.4,62-.8,2.2-.5,4.2-1.3,6.4-2,8.9-2.9,15.1-8.7,17.7-17.6,2.9-9.9,5-20.1,7.6-30.1,1.1-4.3,2-8.7,3.5-12.8.8-2.2,2.3-4.3,3.9-6,1.9-2,2.8-4.1,2.8-6.8,0-3.4,0-6.8,0-10.2ZM265.5,230.5c-.7,1.8-1.7,3.4-2.5,5.2-5.7,11.3-14.8,18-27.3,20.3-17.3,3.2-34.5,2.8-51.6-1.4-9.8-2.4-16.4-8.1-18.4-18.2-1.9-10-3.5-20-5.2-30,0-.6-.1-1.1-.1-1.7h0c-2.1-13.7,4.1-18.3,4.1-18.3,4.9-4.3,10.9-6.2,17.1-7.1,23.8-3.7,47.6-3.5,71,3.1,3,.8,5.9,2.1,8.7,3.5,6.7,3.1,9.9,8.6,10.4,15.8.7,10.3-2.4,19.7-6.3,28.9ZM439.5,204.7h0c0,.6,0,1.2-.1,1.7-1.7,10-3.2,20.1-5.2,30-2,10.1-8.5,15.8-18.4,18.2-17.1,4.1-34.3,4.5-51.6,1.4-12.5-2.3-21.6-8.9-27.3-20.3-.9-1.7-1.8-3.4-2.5-5.2-3.9-9.2-7.1-18.7-6.3-28.9.5-7.2,3.8-12.7,10.4-15.8,2.8-1.3,5.7-2.6,8.7-3.5,23.4-6.6,47.1-6.8,71-3.1,6.1.9,12.2,2.9,17.1,7.1,0,0,6.2,4.6,4.1,18.3Z"/>
    <g>
      <path class="st0" d="M70.7,308.2c0-6.3-1.8-9.5-5.3-9.7-.2.1-.6.2-1.2.2s-1.2,0-1.9.2h.2c-2,.3-3.6.5-4.8.5-5.1,0-7.6-2.4-7.6-7.3s3.3-7.8,9.9-7.8h1.1c.5,0,1,0,1.4.2l8.2,1.2c1.5.2,3.1.4,4.7.5,1.6.1,3.3.2,5,.2,2.7,0,5.6-.2,8.6-.5l10.4-1.2c1-.1,2.2-.2,3.5-.2,1.4,0,2.9,0,4.5,0,10.1,0,18.5,1.4,25.2,4.3,9,3.9,16.1,10.3,21.3,19.5,5.2,9.1,7.8,19.9,7.8,32.2s-2.1,20-6.3,29c-2,4.2-4.4,7.9-7.3,11.1-2.9,3.2-6.1,5.9-9.6,8.1-4.2,2.3-8.9,4.1-14.2,5.4-5.3,1.3-10.9,2-16.8,2s-2.4,0-3.6,0c-1.2,0-2.4-.1-3.6-.2l-10.9-1c-3.6-.3-7.4-.5-11.4-.5s-6.2.2-8.2.5l-7.6,1.2c-.4,0-.8,0-1.2.2h-1.5c-6.4,0-9.6-2.6-9.6-7.8s.7-4,2.2-5.4c1.5-1.4,3.3-2.1,5.4-2.1s2.9.2,4.8.5c.4,0,.9,0,1.3,0,.4,0,.9,0,1.5,0,3.6,0,5.4-3.2,5.4-9.6v-63.5ZM89.4,373.5c0,3.7,1.7,6.1,5.1,6.9,1.1.3,5.3.5,12.7.5s10.7-.9,15-2.6c4.3-1.7,7.8-4,10.4-7,3.1-3.8,5.5-8.4,7.2-13.7,1.7-5.3,2.6-11.1,2.6-17.5,0-10.1-1.9-18.6-5.7-25.6-3.8-6.9-9.1-11.4-15.9-13.4-4.3-1.3-9.6-2-16-2s-12.3.4-14,1.3v-.2c-.9.6-1.3,2.6-1.3,6.1v67Z"/>
      <path class="st0" d="M197.5,372.2c1.6-7.3,3.2-14.5,4.8-21.8,1.5-7.3,3.1-14.6,4.8-21.9.7-3.1,1.4-5.7,2.1-7.8.8-2.1,1.7-3.8,2.7-5,1-1.3,2.3-2.1,3.7-2.6,1.4-.5,3.1-.7,5.1-.7,4.1,0,7.1,1.2,9,3.5,1.9,2.4,3.6,6.6,5,12.6l9.2,43.4c1.5-6,3-12,4.5-17.9,1.4-5.9,2.9-11.9,4.3-17.9.7-3,1-5.5,1-7.6s-.3-2.1-.8-2.1-.7,0-1.4.2c-.7.1-1.5.3-2.2.5-1.6.3-3.2.5-4.6.5-5.6,0-8.4-2.5-8.4-7.4s3.5-7.6,10.4-7.6h1.3c.5,0,1,0,1.5.2,1,.1,2,.2,3,.4,1,.2,2,.3,3.1.4.9.1,1.9.2,3.1.2,1.2,0,2.7,0,4.5,0,2.5,0,5.1-.2,7.8-.5l5.1-.7c.2-.1.5-.2,1-.2h1.2c6.3,0,9.4,2.5,9.4,7.4s-2.6,7.4-7.9,7.4-2.5-.1-3.1-.3c-.6-.1-1-.2-1.4-.2-.4,0-.7,0-.9,0-1.5,0-3.6,5.3-6.3,15.8l-10.6,40.1v-.2c-1.4,5.6-3.2,9.5-5.3,11.6-2.1,2.1-4.9,3.2-8.4,3.2s-6.4-1.3-8.7-3.8c-2.3-2.5-4-6.2-5.1-11.1-.9-4.4-1.7-8.3-2.4-11.7-.7-3.4-1.4-6.7-2.1-10-.7-3.2-1.3-6.6-2.1-10.1-.7-3.5-1.6-7.5-2.6-12l-9.4,42.9c-1.4,5.7-3.2,9.8-5.4,12.2-2.1,2.4-5.1,3.6-9,3.6-6.1,0-10.1-3.7-12.2-11.2-2.5-9.3-5-18.7-7.5-28.1-2.5-9.4-5-18.8-7.5-28.1-.3-.9-.7-1.7-1-2.4-.3-.7-.7-1.1-1-1.1s-.8.2-2.1.5c-.3,0-.7,0-1,0-.3,0-.6,0-.8,0-.3.1-.7.2-1.2.2h-1.1c-5.2,0-7.8-2.4-7.8-7.3s3.2-7.6,9.7-7.6h1.6c.5,0,1,.1,1.3.3l5.8.8c.7.1,1.5.2,2.6.2h2.9c1.4,0,2.9,0,4.5,0,1.6,0,3.3-.2,5.2-.4l3.6-.5c1.2-.2,2.3-.3,3.1-.3h1.6c6.4,0,9.6,2.5,9.6,7.4s-2.9,7.4-8.6,7.4h-1.2c-.6,0-1,0-1.5-.2-.2,0-.5,0-.7,0-.3,0-.5,0-.7,0-1.3-.4-2.5-.7-3.6-.7s-1.3.8-1.3,2.5,0,2.4.2,3.6c.1,1.2.3,2.4.7,3.6l8.9,36.1Z"/>
      <path class="st0" d="M311,367.8v6c0,1.5,0,2.5.2,3.1.3,3.3.8,5,1.5,5-.1,0,.2,0,.8-.2.7-.1,1.5-.3,2.5-.5l-.2.2c.3-.1.7-.2,1.2-.3.5-.1,1.1-.2,1.9-.2,5.7,0,8.6,2.4,8.6,7.3s-.9,4-2.7,5.4c-1.8,1.4-4.1,2.1-6.8,2.1s-2,0-3.3-.2c-1.3-.1-2.9-.3-4.6-.5-1.7-.2-3.1-.4-4.3-.6-1.2-.2-2.2-.2-3-.2-1.2,0-2.6,0-4,.2-1.5.1-3.1.3-4.7.5-2,.2-3.7.4-5,.6-1.4.2-2.5.2-3.4.2-5.9,0-8.9-2.5-8.9-7.6s2.7-7.3,8.1-7.3.9,0,1.9.2c1,.1,1.9.2,2.6.3.8.2,1.4.3,1.8.3h1c.9,0,1.5-2.6,1.8-7.9v-39.8c-.3-5.2-1-7.8-2-7.8s-.6,0-1.2.2c-.6.1-1.2.3-2,.5-.6.2-1.2.4-1.9.4-.7,0-1.3,0-1.7,0-5.6,0-8.4-2.4-8.4-7.3s3.2-7.4,9.6-7.4h3c.8,0,1.3,0,1.6.2,1.5.2,2.8.4,3.9.5,1,.1,1.7.2,2.1.2s.7,0,1.4,0c.7,0,1.4-.1,2.1-.2l4.3-.5c4.7,0,7.1,2.8,7.1,8.2v2.3c-.1.4-.2.8-.2,1.1v.6c-.1.3-.2,1.9-.2,4.6s0,1.6,0,2.4c0,.8,0,1.7,0,2.6-.1,2.2-.2,4.4-.2,6.5v26.8ZM300.1,308.7c-3.2,0-5.9-1-8.1-3.1-2.2-2.1-3.3-4.7-3.3-7.8s1.1-5.6,3.3-7.7c2.2-2,4.9-3.1,8.1-3.1s5.9,1,8.2,3.1c2.3,2,3.4,4.6,3.4,7.7s-1.1,5.7-3.4,7.8c-2.3,2.1-5,3.1-8.2,3.1Z"/>
      <path class="st0" d="M359.3,309.8c1.1,0,2.2,0,3.4.2,1.2.1,2.3.3,3.4.5.9-4.6,3-8.2,6.4-10.8,3.4-2.6,8-3.9,13.9-3.9s10.3,1.4,13.9,4.3c3.7,2.9,5.5,6.5,5.5,11.1s-1.1,5.9-3.2,8.1c-2.1,2.2-4.6,3.3-7.5,3.3s-4.4-.8-6.2-2.4c-1.8-1.6-2.7-3.5-2.7-5.7s.1-1.9.4-2.7c.3-.8,1-1.7,2.1-2.6-.4-.2-.9-.4-1.4-.6s-1-.2-1.4-.2c-3.5,0-5.4,2.4-5.8,7.3,3.8,2.9,6.8,6.1,8.8,9.8,2,3.7,3.1,7.8,3.1,12.5,0,7.8-3,14.4-9.1,19.6-5.8,5.2-13.1,7.8-21.9,7.8s-6.4-.3-9.5-1c-3.1-.7-6.3-1.8-9.5-3.3-1.6-.5-2.7-.8-3.1-.8-.8,0-1.5.4-2.1,1.2-.6.8-.9,1.8-.9,3.1,0,4,4.6,5.9,13.7,5.9h2.1c.4,0,.9,0,1.4-.2h2.1c10.1,0,18.4,1,24.9,3,6.3,2,11.2,5,14.9,9.1,3.7,4.1,5.5,8.7,5.5,14s-1,7.9-2.9,11.2c-1.9,3.3-4.7,6.1-8.3,8.4-3.6,2.3-8,4.1-13.2,5.3-5.2,1.2-10.9,1.8-17.3,1.8-12.9,0-22.9-2.3-30.2-6.8-7.3-4.5-10.9-10.8-10.9-18.8s3.8-13.8,11.6-18c-6.6-3.5-9.9-8.5-9.9-15s1-6.7,3.1-9.4c2.1-2.7,4.9-5,8.4-6.6-1.2-1.9-2-3.7-2.4-5.6-.4-1.9-.6-3.9-.6-6.1,0-7.6,3-14.1,9.1-19.5,5.9-5,13.4-7.4,22.3-7.4ZM360,385.1c-7.6,0-13.5,1.1-17.8,3.2-4.3,2.1-6.4,5-6.4,8.5s2.1,6.5,6.3,8.5c4.2,2,9.8,3.1,17,3.1s13.6-1,17.9-3.1c4.3-2.1,6.5-4.9,6.5-8.4s-2.1-6.5-6.2-8.6c-4.1-2.1-9.9-3.1-17.2-3.1ZM359.8,324.5c-3.9,0-7.2,1.2-9.9,3.5-2.8,2.3-4.2,5.2-4.5,8.7v.7c0,4.1,1.3,7.3,4,9.7,2.6,2.4,6,3.5,10.2,3.5s8.1-1.2,10.9-3.5c2.7-2.4,4.1-5.5,4.1-9.3s-1.4-7-4.3-9.5c-2.9-2.5-6.4-3.7-10.6-3.7Z"/>
      <path class="st0" d="M427.3,292.2l-.7,24.6c3.3-2.5,6.6-4.3,9.8-5.4,3.2-1,7-1.6,11.1-1.6s9.4.7,13.4,2.1c4,1.4,7.3,3.5,10.1,6.1,2.8,2.6,5,5.8,6.5,9.5,1.5,3.7,2.3,7.8,2.3,12.3v33.5c0,1.8,0,2.8.2,3,.3,3.5.8,5.3,1.5,5.3h1.2c.4,0,1-.1,1.7-.3.7-.2,1.2-.3,1.6-.3h1.7c5.6,0,8.4,2.4,8.4,7.3s-3.4,7.4-10.2,7.4-3.5-.2-6.1-.5c-2.2-.2-4.2-.4-5.9-.6-1.8-.2-3.2-.2-4.5-.2s-2.2,0-3.2,0c-1,0-2,.1-2.7.2-4.2.7-7,1-8.4,1-2.6,0-4.8-.8-6.6-2.3-1.8-1.5-2.6-3.5-2.6-5.8s.8-3.5,2.4-4.9c1.6-1.4,3.5-2.1,5.7-2.1s3,.3,5,1c.2,0,.5,0,.8,0,.3,0,.7,0,1,0,1.2,0,1.9-2.6,2.1-7.9v-2.8c0-1.3,0-2.9.2-4.6,0-.9,0-2,0-3.3,0-1.3,0-2.4,0-3.3v-8.4c0-10.1-.9-16.9-2.8-20.3-2.4-4.7-6.9-7.1-13.5-7.1s-12.5,2.5-15.8,7.4c-2.2,3.4-3.4,9.2-3.6,17.5,0,1.9,0,3.7,0,5.6,0,1.9,0,3.7,0,5.6v1.6c0,.7,0,1.3-.2,1.9v9.5c0,1.7,0,2.8.2,3.2.3,3.7,1,5.6,2,5.6s.6,0,1.2-.2c.5-.1,1.2-.2,2-.3.5-.2,1.2-.4,1.9-.4.7,0,1.3,0,1.7,0,5.2,0,7.8,2.3,7.8,6.9s-3.2,7.8-9.6,7.8-4-.2-6.9-.5c-1.9-.2-3.6-.4-5.3-.5-1.7-.1-3.1-.2-4.5-.2s-4,.2-7.1.5c-2.2.2-4,.4-5.4.5-1.4.1-2.3.2-2.9.2-6.1,0-9.1-2.6-9.1-7.9s2.9-6.8,8.6-6.8,2.7.1,3.6.3h-.2c.9.2,1.6.3,2.1.3h1.2c.2,0,.4-.9.5-2.8.5-2.9.9-9.2,1.2-19.1,0-4.6,0-9.3,0-14,0-4.7,0-9.4,0-14,0-15.3-.3-25-1-29.2-.3-2.6-.8-4.1-1.5-4.3-.1.1-.5.2-1.1.2-.6,0-1.1.1-1.6.2-.7.2-1.4.3-2.1.3h-2.1c-5.3,0-7.9-2.4-7.9-7.1s.9-4,2.6-5.4c1.8-1.4,3.9-2.1,6.4-2.1s2.6.2,5.6.5h-.2c1,.1,2,.2,3,.2,1,0,2.1,0,3.3,0s.7,0,1.6,0c.8,0,1.6-.1,2.4-.2.5-.1,1.1-.2,1.7-.2.6,0,1.2,0,1.7,0,4.2,0,6.3,2.5,6.3,7.4v.3Z"/>
      <path class="st0" d="M532.9,361.2c.2-5.7,3-8.6,8.4-8.6s8.1,3.1,8.1,9.4-.4,11-1.3,15.1c-.9,4.1-2.1,7.5-3.6,10-4.4,6.6-11.6,9.9-21.6,9.9s-8.6-.8-12-2.3c-3.4-1.5-6-3.7-8-6.6-3-4.5-4.5-11.5-4.5-21v-37.5c0-.8-.1-1.2-.3-1.2h-5c-2.4,0-4.4-.7-6-2.2-1.6-1.5-2.4-3.3-2.4-5.5s.8-3.8,2.4-5.4c1.6-1.6,3.4-2.4,5.5-2.4h6.1v-16.8c0-5.5,2.9-8.2,8.7-8.2s8.2,2.8,8.2,8.2v16.7c0,.1,0,.2.2.2h17c5.7,0,8.6,2.5,8.6,7.6s-3,7.9-8.9,7.9h-17.3c.3.2.5.6.5,1.2v38.4c0,9.5,2.7,14.2,8.1,14.2s8.7-3.7,8.7-11.1l.3-10.1Z"/>
    </g>
  </g>
</svg>