<?xml version="1.0" encoding="UTF-8"?>
<svg id="Layer_1" data-name="Layer 1" xmlns="http://www.w3.org/2000/svg" viewBox="0 0 600 600">
  <defs>
    <style>
      .cls-1 {
        fill: #c4c4c4;
      }

      .cls-2 {
        fill: #370300;
      }
    </style>
  </defs>
  <rect class="cls-1" y="0" width="600" height="600"/>
  <g>
    <path class="cls-2" d="M328.63,521.63l14.74-75.94-24.68-29-7.45,21.07c7.79,27.65,11.14,56.44,14.26,84.98l-17.19,6.82-24.25-9.21c2.43-24.27,3.95-49.74,9.04-73.6.59-2.75,2.97-7.95,2.98-9.79s-11.11-21.87-12.37-21.85c-8.09,9.36-17.31,18.03-24.24,28.25l20.26,75.1c-34.04-13.04-68.33-25.1-103.13-36-18.88-5.91-35.12-7.15-50.32-21.23-10.89-10.09-21.37-25.45-22.51-40.44,29.59-15.24,65.14-21.53,94.21-37.35,16.84-9.16,28.14-22.24,39.21-37.5-.54,7.15.65,13.74,1.97,20.7,4.58,24.16,13.63,48.21,18.72,72.32,11.78-11.09,21.3-24.57,32.57-36.19,4.9-5.05,9.23-12.04,15.95-5.58,11.12,10.67,21.78,26.01,32.15,37.81.8.92,5.19,6.26,5.97,5.55,5.5-32.28,14.71-64.14,16.3-96.98,9.01,14.22,17.23,24.71,31.96,33.23,23.55,13.61,50.89,20.53,75.51,31.82,21.28,9.76,35.9,18.54,23.08,44.03-12.3,24.45-44.74,27.55-68.75,35.4-31.64,10.35-63.05,21.36-93.99,33.6Z"/>
    <path class="cls-2" d="M225.3,290.05c-.23-.38-5-2.38-7.16-4.95-10.55-12.6-6.86-26.31-10.53-39.55-.68-2.44-3.11-3.61-3.63-5.91-.75-3.29.3-7.28-.36-10.77-.6-3.24-4.1-7.82-5.51-11.18-8.63-20.54-6.02-56.15,6.63-74.73.77-1.13,5.6-5.37,1.22-4.35-2.18.5-4.39,1.65-6.73,2.03-.84.14-2.76.85-2.57-.59,12.67-5.44,18.21-19.56,27.81-28.24,6.14-5.55,16.57-11.3,24.48-13.68,14.6-4.39,29.71-2.29,44.69-1.82l-18.1-7.74c-1.88-.63-1.6-1.16.19-.99,17.92,1.64,34.26,5.64,52.48,7.16,19.78,1.65,23.2,8.51,38.83,17.62,10.19,5.94,19.32,7.44,26.13,18.39,12.84,20.64,10.82,55.42,5.66,78.32-1.4,6.21-4.87,14.16-5.61,19.83-.46,3.54.72,6.91.43,9.16-.35,2.67-4.16,5.96-5.04,8.5-1.39,4.03-1.33,10.6-2.33,15.16-2.34,10.63-6.2,23.99-17.15,28.33l-1.81-3.57c3.52-20.23,4.69-41.44-2.11-60.98-1.61-4.62-4.93-9.5-5.49-14.38-.86-7.46,2.31-15.13,1.41-22.88-.7-6.03-4.23-12.32-6.31-17.94-1.44-.99-5.47,3.28-7.18,4.27-1.9,1.11-4.28,2.47-6.3,3.24-6.78,2.56-15.44,1.61-19.47,8.35-1.54-5.72.77-11.22,1.98-16.69-9.86,6.59-20.13,14.21-32.58,14.31-.88-.84,5.61-9.65,6.5-11.38,1.17-2.25,1.8-4.69,3.03-6.9l-12.47,7.8c-13.13,6.11-27.79,10.01-42.39,8.49,7.98-4.68,15.79-10.08,19.87-18.68-1.28-1.07-12.24,7.19-14.55,8.1-9.49,3.75-12.41-2.47-18.06,9.77-6.31,13.68-.23,21.01-1.59,34.19-.84,8.15-6.93,15.65-7.84,24.75-1.27,12.71.13,32.93,4.14,51.21l-2.62-1.06Z"/>
  </g>
</svg>